<svg width="21" height="15" viewBox="0 0 21 15" fill="none" xmlns="http://www.w3.org/2000/svg">
<path fill-rule="evenodd" clip-rule="evenodd" d="M1.64591 0.208252C1.36965 0.208252 1.1047 0.317999 0.909345 0.513349C0.713995 0.7087 0.604248 0.973651 0.604248 1.24992C0.604248 1.52619 0.713995 1.79114 0.909345 1.98649C1.1047 2.18184 1.36965 2.29159 1.64591 2.29159H19.3542C19.6305 2.29159 19.8955 2.18184 20.0908 1.98649C20.2862 1.79114 20.3959 1.52619 20.3959 1.24992C20.3959 0.973651 20.2862 0.7087 20.0908 0.513349C19.8955 0.317999 19.6305 0.208252 19.3542 0.208252H1.64591ZM0.604248 7.49992C0.604248 7.22365 0.713995 6.9587 0.909345 6.76335C1.1047 6.568 1.36965 6.45825 1.64591 6.45825H19.3542C19.6305 6.45825 19.8955 6.568 20.0908 6.76335C20.2862 6.9587 20.3959 7.22365 20.3959 7.49992C20.3959 7.77619 20.2862 8.04114 20.0908 8.23649C19.8955 8.43184 19.6305 8.54158 19.3542 8.54158H1.64591C1.36965 8.54158 1.1047 8.43184 0.909345 8.23649C0.713995 8.04114 0.604248 7.77619 0.604248 7.49992ZM0.604248 13.751C0.604248 13.4747 0.713995 13.2097 0.909345 13.0144C1.1047 12.819 1.36965 12.7093 1.64591 12.7093H19.3542C19.6305 12.7093 19.8955 12.819 20.0908 13.0144C20.2862 13.2097 20.3959 13.4747 20.3959 13.751C20.3959 14.0272 20.2862 14.2922 20.0908 14.4875C19.8955 14.6829 19.6305 14.7926 19.3542 14.7926H1.64591C1.36965 14.7926 1.1047 14.6829 0.909345 14.4875C0.713995 14.2922 0.604248 14.0272 0.604248 13.751Z" fill="#525252"/>
</svg>
