<svg width="12" height="17" viewBox="0 0 12 17" fill="none" xmlns="http://www.w3.org/2000/svg">
<path d="M9.94141 1.87886C9.94141 1.87886 9.6582 1.59565 9.0918 1.02925C8.52539 0.462841 7.4349 0.179638 5.82031 0.179638C4.20573 0.179638 2.83203 0.746044 1.69922 1.87886C0.566406 3.01167 0 4.38537 0 5.99995C0 6.80724 0.195312 7.73172 0.585938 8.77339C0.976562 9.81505 1.45833 10.7916 2.03125 11.7031C2.60417 12.6145 3.17708 13.4609 3.75 14.2421C4.32292 15.0234 4.8112 15.6549 5.21484 16.1367C5.61849 16.6184 5.82031 16.8463 5.82031 16.8203C5.97656 16.664 6.1849 16.4296 6.44531 16.1171C6.70573 15.8046 7.17448 15.1927 7.85156 14.2812C8.52865 13.3697 9.12109 12.4973 9.62891 11.664C10.1367 10.8307 10.599 9.88016 11.0156 8.81245C11.4323 7.74474 11.6406 6.80724 11.6406 5.99995C11.6406 4.38537 11.0742 3.01167 9.94141 1.87886ZM7.28516 7.46479C7.28516 7.46479 7.18424 7.56571 6.98242 7.76753C6.7806 7.96935 6.39323 8.07026 5.82031 8.07026C5.2474 8.07026 4.75911 7.86844 4.35547 7.46479C3.95182 7.06115 3.75 6.57287 3.75 5.99995C3.75 5.42703 3.95182 4.93875 4.35547 4.53511C4.75911 4.13146 5.2474 3.92964 5.82031 3.92964C6.39323 3.92964 6.88151 4.13146 7.28516 4.53511C7.6888 4.93875 7.89062 5.42703 7.89062 5.99995C7.89062 6.57287 7.6888 7.06115 7.28516 7.46479Z" fill="#FF7300"/>
</svg>
