<svg width="15" height="15" viewBox="0 0 15 15" fill="none" xmlns="http://www.w3.org/2000/svg">
<path d="M3.00781 6.48438C4.15365 8.82812 5.98958 10.6641 8.51562 11.9922L10.3516 10.1562C10.638 9.86979 10.9115 9.81771 11.1719 10C12.0833 10.3385 13.0859 10.5078 14.1797 10.5078C14.4141 10.5078 14.6094 10.5859 14.7656 10.7422C14.9219 10.8984 15 11.0938 15 11.3281V14.1797C15 14.4141 14.9219 14.6094 14.7656 14.7656C14.6094 14.9219 14.4141 15 14.1797 15C11.6016 15 9.22526 14.3685 7.05078 13.1055C4.8763 11.8424 3.15755 10.1237 1.89453 7.94922C0.63151 5.77474 0 3.39844 0 0.820312C0 0.585938 0.078125 0.390625 0.234375 0.234375C0.390625 0.078125 0.585938 0 0.820312 0H3.75C4.01042 0 4.21224 0.078125 4.35547 0.234375C4.4987 0.390625 4.57031 0.585938 4.57031 0.820312C4.57031 1.83594 4.73958 2.83854 5.07812 3.82812C5.15625 4.08854 5.10417 4.36198 4.92188 4.64844L3.00781 6.48438Z" fill="#FF7300"/>
</svg>
