<svg width="27" height="27" viewBox="0 0 27 27" fill="none" xmlns="http://www.w3.org/2000/svg">
<path d="M7.12234 9H19.8787C20.2031 8.99996 20.5237 9.07008 20.8185 9.20554C21.1133 9.341 21.3753 9.5386 21.5865 9.7848C21.7978 10.031 21.9533 10.32 22.0424 10.6319C22.1315 10.9438 22.1521 11.2714 22.1028 11.592L20.691 20.763C20.5684 21.56 20.1645 22.2868 19.5525 22.8118C18.9404 23.3367 18.1606 23.6252 17.3542 23.625H9.64571C8.83954 23.625 8.06 23.3364 7.44817 22.8114C6.83634 22.2864 6.43263 21.5598 6.31009 20.763L4.89821 11.592C4.8489 11.2714 4.86951 10.9438 4.95863 10.6319C5.04775 10.32 5.20327 10.031 5.41453 9.7848C5.62579 9.5386 5.88778 9.341 6.18256 9.20554C6.47734 9.07008 6.79793 8.99996 7.12234 9Z" stroke="black" stroke-width="2" stroke-linecap="round" stroke-linejoin="round"/>
<path d="M10.125 12.375V6.75C10.125 5.85489 10.4806 4.99645 11.1135 4.36351C11.7464 3.73058 12.6049 3.375 13.5 3.375C14.3951 3.375 15.2536 3.73058 15.8865 4.36351C16.5194 4.99645 16.875 5.85489 16.875 6.75V12.375" stroke="black" stroke-width="2" stroke-linecap="round" stroke-linejoin="round"/>
</svg>
