<svg width="30" height="30" viewBox="0 0 30 30" fill="none" xmlns="http://www.w3.org/2000/svg">
<path d="M15.034 0C7.007 0 0.5 6.507 0.5 14.534C0.5 22.561 7.007 29.068 15.034 29.068C23.061 29.068 29.568 22.561 29.568 14.534C29.568 6.507 23.061 0 15.034 0ZM23.42 13.502C22.7316 14.2937 21.826 14.866 20.8155 15.148C19.8049 15.4299 18.7338 15.409 17.735 15.088L10.548 23.354C10.1784 23.7708 9.65912 24.0247 9.10321 24.0606C8.5473 24.0965 7.99971 23.9114 7.57958 23.5455C7.15946 23.1797 6.90079 22.6628 6.85985 22.1073C6.81892 21.5517 6.99903 21.0024 7.361 20.579L14.559 12.305C14.1191 11.3881 13.9498 10.3648 14.0709 9.35509C14.1919 8.34537 14.5984 7.3911 15.2425 6.60419C15.8867 5.81727 16.7419 5.23033 17.7078 4.9122C18.6737 4.59406 19.7103 4.55791 20.696 4.808L17.941 8.02L18.841 10.64L21.564 11.17L24.324 7.95C24.7054 8.86782 24.8231 9.87388 24.6637 10.8549C24.5044 11.836 24.0743 12.7531 23.422 13.503L23.42 13.502Z" fill="#FF7300"/>
</svg>
