<svg width="27" height="29" viewBox="0 0 27 29" fill="none" xmlns="http://www.w3.org/2000/svg">
<path d="M11.4488 1.245C12.0305 0.778966 12.7537 0.525024 13.4991 0.525024C14.2445 0.525024 14.9676 0.778966 15.5494 1.245L25.3931 9.12C26.1713 9.7425 26.625 10.6856 26.625 11.6831V24.8438C26.625 25.714 26.2793 26.5486 25.6639 27.1639C25.0486 27.7793 24.214 28.125 23.3438 28.125H16.7812C16.4083 28.125 16.0506 27.9768 15.7869 27.7131C15.5232 27.4494 15.375 27.0917 15.375 26.7188V16.875H11.625V26.7188C11.625 27.0917 11.4768 27.4494 11.2131 27.7131C10.9494 27.9768 10.5917 28.125 10.2188 28.125H3.65625C2.78601 28.125 1.95141 27.7793 1.33606 27.1639C0.720702 26.5486 0.375 25.714 0.375 24.8438V11.6813C0.375 10.6856 0.82875 9.7425 1.60687 9.12L11.4488 1.245ZM13.7925 3.44063C13.7094 3.3743 13.6063 3.33817 13.5 3.33817C13.3937 3.33817 13.2906 3.3743 13.2075 3.44063L3.36375 11.3156C3.3086 11.3597 3.26411 11.4156 3.23359 11.4792C3.20307 11.5429 3.18732 11.6126 3.1875 11.6831V24.8438C3.1875 25.1025 3.3975 25.3125 3.65625 25.3125H8.8125V15.4688C8.8125 15.0958 8.96066 14.7381 9.22438 14.4744C9.4881 14.2107 9.84579 14.0625 10.2188 14.0625H16.7812C17.1542 14.0625 17.5119 14.2107 17.7756 14.4744C18.0393 14.7381 18.1875 15.0958 18.1875 15.4688V25.3125H23.3438C23.4681 25.3125 23.5873 25.2631 23.6752 25.1752C23.7631 25.0873 23.8125 24.9681 23.8125 24.8438V11.6813C23.8124 11.611 23.7965 11.5417 23.766 11.4784C23.7355 11.4151 23.6912 11.3595 23.6362 11.3156L13.7925 3.44063Z" fill="black"/>
</svg>
