<svg width="27" height="26" viewBox="0 0 27 26" fill="none" xmlns="http://www.w3.org/2000/svg">
<path fill-rule="evenodd" clip-rule="evenodd" d="M13.5 26C15.2728 26 17.0283 25.6637 18.6662 25.0104C20.3041 24.3571 21.7923 23.3995 23.0459 22.1924C24.2995 20.9852 25.2939 19.5521 25.9724 17.9749C26.6508 16.3977 27 14.7072 27 13C27 11.2928 26.6508 9.60235 25.9724 8.02512C25.2939 6.44788 24.2995 5.01477 23.0459 3.80761C21.7923 2.60045 20.3041 1.64288 18.6662 0.989566C17.0283 0.336255 15.2728 -2.5439e-08 13.5 0C9.91958 5.13764e-08 6.4858 1.36964 3.95406 3.80761C1.42232 6.24558 0 9.55219 0 13C0 16.4478 1.42232 19.7544 3.95406 22.1924C6.4858 24.6304 9.91958 26 13.5 26ZM13.152 18.2578L20.652 9.59111L18.348 7.74222L11.898 15.1941L8.5605 11.9788L6.4395 14.0212L10.9395 18.3546L12.1005 19.4726L13.152 18.2578Z" fill="#FF7300"/>
</svg>
