<svg width="25" height="24" viewBox="0 0 25 24" fill="none" xmlns="http://www.w3.org/2000/svg">
<path d="M24.0625 12H8.61875M3.1675 12H0.9375M3.1675 12C3.1675 11.2773 3.4546 10.5842 3.96563 10.0731C4.47667 9.56208 5.16979 9.27498 5.8925 9.27498C6.61522 9.27498 7.30833 9.56208 7.81937 10.0731C8.3304 10.5842 8.6175 11.2773 8.6175 12C8.6175 12.7227 8.3304 13.4158 7.81937 13.9269C7.30833 14.4379 6.61522 14.725 5.8925 14.725C5.16979 14.725 4.47667 14.4379 3.96563 13.9269C3.4546 13.4158 3.1675 12.7227 3.1675 12ZM24.0625 20.2587H16.8775M16.8775 20.2587C16.8775 20.9816 16.5897 21.6755 16.0786 22.1867C15.5674 22.6978 14.8741 22.985 14.1513 22.985C13.4285 22.985 12.7354 22.6966 12.2244 22.1856C11.7133 21.6746 11.4262 20.9815 11.4262 20.2587M16.8775 20.2587C16.8775 19.5359 16.5897 18.8432 16.0786 18.3321C15.5674 17.8209 14.8741 17.5337 14.1513 17.5337C13.4285 17.5337 12.7354 17.8208 12.2244 18.3319C11.7133 18.8429 11.4262 19.536 11.4262 20.2587M11.4262 20.2587H0.9375M24.0625 3.74124H20.1813M14.73 3.74124H0.9375M14.73 3.74124C14.73 3.01852 15.0171 2.32541 15.5281 1.81437C16.0392 1.30333 16.7323 1.01624 17.455 1.01624C17.8129 1.01624 18.1672 1.08672 18.4978 1.22366C18.8284 1.36061 19.1288 1.56133 19.3819 1.81437C19.6349 2.06741 19.8356 2.36781 19.9726 2.69842C20.1095 3.02904 20.18 3.38338 20.18 3.74124C20.18 4.09909 20.1095 4.45344 19.9726 4.78405C19.8356 5.11466 19.6349 5.41506 19.3819 5.6681C19.1288 5.92114 18.8284 6.12186 18.4978 6.25881C18.1672 6.39575 17.8129 6.46623 17.455 6.46623C16.7323 6.46623 16.0392 6.17914 15.5281 5.6681C15.0171 5.15706 14.73 4.46395 14.73 3.74124Z" stroke="black" stroke-width="1.5" stroke-miterlimit="10" stroke-linecap="round"/>
</svg>
