<svg width="32" height="30" viewBox="0 0 32 30" fill="none" xmlns="http://www.w3.org/2000/svg">
<g clip-path="url(#clip0_1800_405)">
<path d="M28.9167 16.8125V25.875C28.9167 26.1955 28.7806 26.5028 28.5383 26.7294C28.2961 26.956 27.9676 27.0833 27.625 27.0833H26.3333C25.9908 27.0833 25.6622 26.956 25.42 26.7294C25.1778 26.5028 25.0417 26.1955 25.0417 25.875V24.6667H6.95833V25.875C6.95833 26.1955 6.82225 26.5028 6.58001 26.7294C6.33778 26.956 6.00924 27.0833 5.66667 27.0833H4.375C4.03243 27.0833 3.70389 26.956 3.46165 26.7294C3.21942 26.5028 3.08333 26.1955 3.08333 25.875V16.8125L1.47779 16.4379C1.19847 16.3725 0.950544 16.2216 0.773388 16.0092C0.596232 15.7969 0.500008 15.5352 0.5 15.2658L0.5 14.3958C0.5 14.2356 0.568043 14.0819 0.68916 13.9686C0.810277 13.8553 0.974548 13.7917 1.14583 13.7917H3.63746L6.28667 8.00617C6.48591 7.57136 6.8172 7.20081 7.23945 6.94048C7.6617 6.68015 8.15634 6.54148 8.66204 6.54167H10.8333V4.125H14.7083V6.54167H17.2917V4.125H21.1667V6.54167H23.338C23.8434 6.54172 24.3378 6.6805 24.7598 6.94082C25.1818 7.20113 25.5129 7.57154 25.712 8.00617L28.3638 13.7917H30.8542C31.0255 13.7917 31.1897 13.8553 31.3108 13.9686C31.432 14.0819 31.5 14.2356 31.5 14.3958V15.2658C31.4999 15.5354 31.4035 15.7971 31.2261 16.0095C31.0487 16.2219 30.8005 16.3727 30.5209 16.4379L28.9167 16.8125ZM5.66667 18.625V21.0417C5.66667 21.3621 5.80275 21.6695 6.04499 21.8961C6.28722 22.1227 6.61576 22.25 6.95833 22.25H11.1498C11.2613 22.2498 11.3709 22.2227 11.4679 22.1711C11.5648 22.1196 11.6459 22.0454 11.7031 21.9558C11.7603 21.8663 11.7918 21.7644 11.7944 21.6601C11.797 21.5558 11.7708 21.4526 11.7181 21.3607C10.6783 19.5361 8.66075 18.625 5.66667 18.625ZM26.3333 18.625C23.3405 18.625 21.323 19.5373 20.2806 21.3607C20.2279 21.4527 20.2016 21.556 20.2043 21.6604C20.207 21.7648 20.2386 21.8668 20.296 21.9564C20.3533 22.0459 20.4346 22.1201 20.5317 22.1716C20.6288 22.223 20.7386 22.25 20.8502 22.25H25.0417C25.3842 22.25 25.7128 22.1227 25.955 21.8961C26.1972 21.6695 26.3333 21.3621 26.3333 21.0417V18.625ZM8.25 8.95833L6.37579 13.3434C6.29752 13.5266 6.26843 13.7251 6.29106 13.9213C6.31369 14.1175 6.38736 14.3056 6.50561 14.469C6.62387 14.6324 6.78312 14.7663 6.96944 14.8588C7.15577 14.9514 7.36349 14.9999 7.57446 15H24.4255C24.6364 14.9996 24.8439 14.9509 25.0301 14.8583C25.2163 14.7656 25.3754 14.6318 25.4936 14.4685C25.6117 14.3051 25.6854 14.1172 25.7082 13.9211C25.731 13.725 25.7021 13.5267 25.6242 13.3434L23.75 8.95833H8.25Z" fill="#FF7300"/>
</g>
<defs>
<clipPath id="clip0_1800_405">
<rect width="31" height="29" fill="white" transform="translate(0.5 0.5)"/>
</clipPath>
</defs>
</svg>
