<svg width="26" height="26" viewBox="0 0 26 26" fill="none" xmlns="http://www.w3.org/2000/svg">
<path d="M19.1875 18.6719C19.1875 18.9778 19.0968 19.2769 18.9268 19.5313C18.7568 19.7857 18.5152 19.9839 18.2326 20.101C17.9499 20.2181 17.6389 20.2487 17.3388 20.189C17.0388 20.1293 16.7632 19.982 16.5468 19.7657C16.3305 19.5493 16.1832 19.2737 16.1235 18.9737C16.0638 18.6736 16.0944 18.3626 16.2115 18.0799C16.3286 17.7973 16.5268 17.5557 16.7812 17.3857C17.0356 17.2157 17.3347 17.125 17.6406 17.125C18.0509 17.125 18.4443 17.288 18.7344 17.5781C19.0245 17.8682 19.1875 18.2616 19.1875 18.6719ZM8.35938 8.875C8.66532 8.875 8.96439 8.78428 9.21877 8.61431C9.47316 8.44433 9.67142 8.20274 9.7885 7.92009C9.90558 7.63743 9.93621 7.32641 9.87653 7.02634C9.81684 6.72628 9.66952 6.45065 9.45318 6.23432C9.23685 6.01798 8.96122 5.87066 8.66116 5.81097C8.36109 5.75129 8.05007 5.78192 7.76741 5.899C7.48476 6.01608 7.24317 6.21435 7.07319 6.46873C6.90322 6.72311 6.8125 7.02218 6.8125 7.32812C6.8125 7.73838 6.97547 8.13184 7.26557 8.42193C7.55566 8.71203 7.94912 8.875 8.35938 8.875ZM25.375 2.6875V23.3125C25.375 23.8595 25.1577 24.3841 24.7709 24.7709C24.3841 25.1577 23.8595 25.375 23.3125 25.375H2.6875C2.14049 25.375 1.61589 25.1577 1.22909 24.7709C0.842298 24.3841 0.625 23.8595 0.625 23.3125V2.6875C0.625 2.14049 0.842298 1.61589 1.22909 1.22909C1.61589 0.842298 2.14049 0.625 2.6875 0.625H23.3125C23.8595 0.625 24.3841 0.842298 24.7709 1.22909C25.1577 1.61589 25.375 2.14049 25.375 2.6875ZM4.75 7.32812C4.75 8.04199 4.96169 8.73983 5.35829 9.33339C5.75489 9.92695 6.3186 10.3896 6.97813 10.6628C7.63765 10.9359 8.36338 11.0074 9.06353 10.8681C9.76368 10.7289 10.4068 10.3851 10.9116 9.88034C11.4164 9.37556 11.7601 8.73243 11.8994 8.03228C12.0387 7.33213 11.9672 6.6064 11.694 5.94688C11.4208 5.28735 10.9582 4.72364 10.3646 4.32704C9.77108 3.93044 9.07324 3.71875 8.35938 3.71875C7.40211 3.71875 6.48405 4.09902 5.80716 4.77591C5.13027 5.4528 4.75 6.37086 4.75 7.32812ZM21.25 18.6719C21.25 17.958 21.0383 17.2602 20.6417 16.6666C20.2451 16.0731 19.6814 15.6104 19.0219 15.3372C18.3623 15.0641 17.6366 14.9926 16.9365 15.1319C16.2363 15.2711 15.5932 15.6149 15.0884 16.1197C14.5836 16.6244 14.2399 17.2676 14.1006 17.9677C13.9613 18.6679 14.0328 19.3936 14.306 20.0531C14.5792 20.7127 15.0418 21.2764 15.6354 21.673C16.2289 22.0696 16.9268 22.2812 17.6406 22.2812C18.5979 22.2812 19.516 21.901 20.1928 21.2241C20.8697 20.5472 21.25 19.6291 21.25 18.6719ZM20.9484 5.05164C20.8526 4.95576 20.7388 4.87969 20.6137 4.8278C20.4885 4.7759 20.3543 4.74919 20.2188 4.74919C20.0832 4.74919 19.949 4.7759 19.8238 4.8278C19.6987 4.87969 19.5849 4.95576 19.4891 5.05164L5.05164 19.4891C4.85814 19.6826 4.74943 19.9451 4.74943 20.2188C4.74943 20.4924 4.85814 20.7549 5.05164 20.9484C5.24514 21.1419 5.50759 21.2506 5.78125 21.2506C6.05491 21.2506 6.31736 21.1419 6.51086 20.9484L20.9484 6.51086C21.0442 6.41508 21.1203 6.30135 21.1722 6.17616C21.2241 6.05097 21.2508 5.91677 21.2508 5.78125C21.2508 5.64573 21.2241 5.51153 21.1722 5.38634C21.1203 5.26115 21.0442 5.14742 20.9484 5.05164Z" fill="#FF7300"/>
</svg>
